                                                                        S      1
,,17HLift Linkage B v2,17HLift Linkage B v2,7Hunknown,7Hunknown,32,38,7,G      1
99,15,,1.,2,2HMM,1,0.08,15H20161011.170756,0.01,10000.,7Hunknown,7HunknoG      2
wn,11,0,;                                                               G      3
     186       1                                                00000000D      1
     186            -115       1       0                               0D      2
     514       2                                                00010000D      3
     514                       1       1                               0D      4
     510       3                                                00010000D      5
     510            -115       1       1                               0D      6
     510       4                                                00010000D      7
     510            -115       1       1                               0D      8
     510       5                                                00010000D      9
     510            -115       1       1                               0D     10
     510       6                                                00010000D     11
     510            -115       1       1                               0D     12
     510       7                                                00010000D     13
     510            -115       1       1                               0D     14
     510       8                                                00010000D     15
     510            -115       1       1                               0D     16
     510       9                                                00010000D     17
     510            -115       1       1                               0D     18
     510      10                                                00010000D     19
     510            -115       1       1                               0D     20
     510      11                                                00010000D     21
     510            -115       1       1                               0D     22
     508      12                                                00010000D     23
     508                       1       1                               0D     24
     508      13                                                00010000D     25
     508                       1       1                               0D     26
     508      14                                                00010000D     27
     508                       2       1                               0D     28
     508      16                                                00010000D     29
     508                       1       1                               0D     30
     508      17                                                00010000D     31
     508                       1       1                               0D     32
     508      18                                                00010000D     33
     508                       2       1                               0D     34
     508      20                                                00010000D     35
     508                       1       1                               0D     36
     508      21                                                00010000D     37
     508                       1       1                               0D     38
     508      22                                                00010000D     39
     508                       1       1                               0D     40
     508      23                                                00010000D     41
     508                       1       1                               0D     42
     508      24                                                00010000D     43
     508                       1       1                               0D     44
     508      25                                                00010000D     45
     508                       1       1                               0D     46
     508      26                                                00010000D     47
     508                       1       1                               0D     48
     126      27                                                00010000D     49
     126       0              12       0                               0D     50
     126      39                                                00010000D     51
     126       0              12       0                               0D     52
     126      51                                                00010000D     53
     126       0               7       0                               0D     54
     126      58                                                00010000D     55
     126       0               9       0                               0D     56
     126      67                                                00010000D     57
     126       0               7       0                               0D     58
     126      74                                                00010000D     59
     126       0              13       0                               0D     60
     126      87                                                00010000D     61
     126       0               5       0                               0D     62
     126      92                                                00010000D     63
     126       0              15       0                               0D     64
     126     107                                                00010000D     65
     126       0              12       0                               0D     66
     126     119                                                00010000D     67
     126       0               4       0                               0D     68
     126     123                                                00010000D     69
     126       0               3       0                               0D     70
     126     126                                                00010000D     71
     126       0              13       0                               0D     72
     126     139                                                00010000D     73
     126       0               3       0                               0D     74
     126     142                                                00010000D     75
     126       0               3       0                               0D     76
     126     145                                                00010000D     77
     126       0               5       0                               0D     78
     126     150                                                00010000D     79
     126       0              13       0                               0D     80
     126     163                                                00010000D     81
     126       0               7       0                               0D     82
     126     170                                                00010000D     83
     126       0              15       0                               0D     84
     126     185                                                00010000D     85
     126       0               3       0                               0D     86
     126     188                                                00010000D     87
     126       0               3       0                               0D     88
     126     191                                                00010000D     89
     126       0               4       0                               0D     90
     128     195                                                00010000D     91
     128       0    -115       5       0                               0D     92
     128     200                                                00010000D     93
     128       0    -115       9       0                               0D     94
     128     209                                                00010000D     95
     128       0    -115      21       0                               0D     96
     128     230                                                00010000D     97
     128       0    -115      21       0                               0D     98
     128     251                                                00010000D     99
     128       0    -115       9       0                               0D    100
     128     260                                                00010000D    101
     128       0    -115      10       0                               0D    102
     128     270                                                00010000D    103
     128       0    -115      10       0                               0D    104
     128     280                                                00010000D    105
     128       0    -115      26       0                               0D    106
     128     306                                                00010000D    107
     128       0    -115      22       0                               0D    108
     502     328                                                00010000D    109
     502                      13       1                               0D    110
     504     341                                                00010001D    111
     504                       6       1                               0D    112
     406     347                                                00000000D    113
     406                       1      15                               0D    114
     314     348                                                00000200D    115
     314                       2       0                               0D    116
     314     350                                                00000200D    117
     314                       2       0                               0D    118
186,3,1,0,0,1,113;                                                     1P      1
514,9,5,1,7,1,9,1,11,1,13,1,15,1,17,1,19,1,21,1;                       3P      2
510,91,2,1,23,25;                                                      5P      3
510,93,2,1,27,29;                                                      7P      4
510,95,1,1,31;                                                         9P      5
510,97,1,1,33;                                                        11P      6
510,99,3,1,35,37,39;                                                  13P      7
510,101,1,1,41;                                                       15P      8
510,103,1,1,43;                                                       17P      9
510,105,1,1,45;                                                       19P     10
510,107,1,1,47;                                                       21P     11
508,1,0,111,1,1,0;                                                    23P     12
508,1,0,111,2,1,0;                                                    25P     13
508,5,0,111,3,1,0,0,111,4,1,0,0,111,5,1,0,0,111,6,0,0,0,111,7,0,      27P     14
0;                                                                    27P     15
508,1,0,111,8,0,0;                                                    29P     16
508,4,0,111,9,0,0,0,111,10,1,0,0,111,2,0,0,0,111,10,0,0;              31P     17
508,8,0,111,11,1,0,0,111,12,0,0,0,111,13,0,0,0,111,4,0,0,0,111,       33P     18
14,1,0,0,111,1,0,0,0,111,14,0,0,0,111,3,0,0;                          33P     19
508,4,0,111,12,1,0,0,111,15,1,0,0,111,16,1,0,0,111,17,1,0;            35P     20
508,1,0,111,18,1,0;                                                   37P     21
508,1,0,111,9,1,0;                                                    39P     22
508,4,0,111,5,0,0,0,111,13,1,0,0,111,17,0,0,0,111,19,0,0;             41P     23
508,4,0,111,7,1,0,0,111,20,1,0,0,111,15,0,0,0,111,11,0,0;             43P     24
508,4,0,111,18,0,0,0,111,21,1,0,0,111,8,1,0,0,111,21,0,0;             45P     25
508,4,0,111,19,1,0,0,111,16,0,0,0,111,20,0,0,0,111,6,1,0;             47P     26
126,8,2,0,1,0,0,-3.14159265358979,-3.14159265358979,                  49P     27
-3.14159265358979,-1.5707963267949,-1.5707963267949,0.,0.,            49P     28
1.5707963267949,1.5707963267949,3.14159265358979,                     49P     29
3.14159265358979,3.14159265358979,1.,0.707106781186547,1.,            49P     30
0.707106781186547,1.,0.707106781186547,1.,0.707106781186547,1.,       49P     31
-40.4999999999997,12.5000000000002,27.1,-40.4999999999997,            49P     32
12.5000000000002,21.6,-34.9999999999997,12.5000000000002,21.6,        49P     33
-29.4999999999997,12.5000000000002,21.6,-29.4999999999997,            49P     34
12.5000000000002,27.1,-29.4999999999997,12.5000000000002,32.6,        49P     35
-34.9999999999997,12.5000000000002,32.6,-40.4999999999997,            49P     36
12.5000000000002,32.6,-40.4999999999997,12.5000000000002,27.1,        49P     37
-3.14159265358979,3.14159265358979,0.,0.,0.;                          49P     38
126,8,2,0,1,0,0,-3.14159265358979,-3.14159265358979,                  51P     39
-3.14159265358979,-1.5707963267949,-1.5707963267949,0.,0.,            51P     40
1.5707963267949,1.5707963267949,3.14159265358979,                     51P     41
3.14159265358979,3.14159265358979,1.,0.707106781186542,1.,            51P     42
0.707106781186542,1.,0.707106781186542,1.,0.707106781186542,1.,       51P     43
-36.4999999999997,12.5000000000002,27.1,-36.4999999999997,            51P     44
12.5000000000002,28.6,-34.9999999999997,12.5000000000002,28.6,        51P     45
-33.4999999999997,12.5000000000002,28.6,-33.4999999999997,            51P     46
12.5000000000002,27.1,-33.4999999999997,12.5000000000002,25.6,        51P     47
-34.9999999999997,12.5000000000002,25.6,-36.4999999999997,            51P     48
12.5000000000002,25.6,-36.4999999999997,12.5000000000002,27.1,        51P     49
-3.14159265358979,3.14159265358979,0.,0.,0.;                          51P     50
126,2,2,0,0,0,0,-3.94502261614034,-3.94502261614034,                  53P     51
-3.94502261614034,-3.14159265358979,-3.14159265358979,                53P     52
-3.14159265358979,1.,0.920391794671037,1.,-38.8183316126755,          53P     53
16.5000000000002,23.1414215056865,-40.4999999999997,                  53P     54
16.5000000000002,24.7635107416539,-40.4999999999997,                  53P     55
16.5000000000002,27.1,-3.94502261614034,-3.14159265358979,0.,0.,      53P     56
0.;                                                                   53P     57
126,4,2,0,0,0,0,-3.14159265358979,-3.14159265358979,                  55P     58
-3.14159265358979,-2.29278343621922,-2.29278343621922,                55P     59
-1.44397421884865,-1.44397421884865,-1.44397421884865,1.,             55P     60
0.911284063674418,1.,0.911284063674425,1.,-40.4999999999997,          55P     61
16.5000000000002,27.1,-40.4999999999997,16.5000000000002,             55P     62
29.5852629965491,-38.6348250917765,16.5000000000002,                  55P     63
31.2277168691893,-36.7696501835532,16.5000000000002,                  55P     64
32.8701707418295,-34.3043467082942,16.5000000000002,                  55P     65
32.5558286719562,-3.14159265358979,-1.44397421884865,0.,0.,0.;        55P     66
126,2,2,0,0,0,0,7.87304970371296D-17,7.87304970371296D-17,            57P     67
7.87304970371296D-17,0.550784971070728,0.550784971070728,             57P     68
0.550784971070728,1.,0.962318545257706,1.,-34.3043467082942,          57P     69
16.5000000000002,32.5558286719562,-43.2968777630948,                  57P     70
16.5000000000002,42.5202420335286,-45.7446007978118,                  57P     71
16.5000000000002,55.7173553677829,7.87304970371296D-17,               57P     72
0.550784971070728,0.,0.,0.;                                           57P     73
126,6,2,0,0,0,0,3.02745732227395,3.02745732227395,                    59P     74
3.02745732227395,4.28816962556976,4.28816962556976,                   59P     75
5.54888192886557,5.54888192886557,6.80959423216139,                   59P     76
6.80959423216139,6.80959423216139,1.,0.807817632193481,1.,            59P     77
0.80781763219348,1.,0.807817632193467,1.,-55.9642087803722,           59P     78
16.5000000000002,57.8543473406886,-56.4212551015422,                  59P     79
16.5000000000002,61.8413683792971,-52.7638458308862,                  59P     80
16.5000000000002,63.4932114496044,-49.1064365602303,                  59P     81
16.5000000000002,65.1450545199117,-46.4173563568267,                  59P     82
16.5000000000002,62.1661158227135,-43.7282761534231,                  59P     83
16.5000000000002,59.1871771255152,-45.7446007978118,                  59P     84
16.5000000000002,55.7173553677829,3.02745732227395,                   59P     85
6.80959423216139,0.,0.,0.;                                            59P     86
126,2,2,0,0,0,0,0.,0.,0.,0.689294631235922,0.689294631235922,         61P     87
0.689294631235922,1.,0.941194670761729,1.,-38.8183316126755,          61P     88
16.5000000000002,23.1414215056865,-53.6217953463927,                  61P     89
16.5000000000002,37.4204192905256,-55.964208780368,                   61P     90
16.5000000000002,57.854347340689,0.,0.689294631235922,0.,0.,0.;       61P     91
126,8,2,0,1,0,0,-3.14159265358979,-3.14159265358979,                  63P     92
-3.14159265358979,-1.5707963267949,-1.5707963267949,0.,0.,            63P     93
1.5707963267949,1.5707963267949,3.14159265358979,                     63P     94
3.14159265358979,3.14159265358979,1.,0.707106781186564,1.,            63P     95
0.707106781186564,1.,0.707106781186564,1.,0.707106781186564,1.,       63P     96
-51.9999938108955,16.5000000000002,58.4807296260333,                  63P     97
-51.9999938108955,16.5000000000002,56.9807296260333,                  63P     98
-50.4999938108955,16.5000000000002,56.9807296260333,                  63P     99
-48.9999938108955,16.5000000000002,56.9807296260333,                  63P    100
-48.9999938108955,16.5000000000002,58.4807296260333,                  63P    101
-48.9999938108955,16.5000000000002,59.9807296260333,                  63P    102
-50.4999938108955,16.5000000000002,59.9807296260333,                  63P    103
-51.9999938108955,16.5000000000002,59.9807296260333,                  63P    104
-51.9999938108955,16.5000000000002,58.4807296260333,                  63P    105
-3.14159265358979,3.14159265358979,0.,0.,0.;                          63P    106
126,8,2,0,1,0,0,-3.14159265358979,-3.14159265358979,                  65P    107
-3.14159265358979,-1.5707963267949,-1.5707963267949,0.,0.,            65P    108
1.5707963267949,1.5707963267949,3.14159265358979,                     65P    109
3.14159265358979,3.14159265358979,1.,0.707106781186542,1.,            65P    110
0.707106781186542,1.,0.707106781186542,1.,0.707106781186542,1.,       65P    111
-36.4999999999997,20.5000000000002,27.1,-36.4999999999997,            65P    112
20.5000000000002,25.6,-34.9999999999997,20.5000000000002,25.6,        65P    113
-33.4999999999997,20.5000000000002,25.6,-33.4999999999997,            65P    114
20.5000000000002,27.1,-33.4999999999997,20.5000000000002,28.6,        65P    115
-34.9999999999997,20.5000000000002,28.6,-36.4999999999997,            65P    116
20.5000000000002,28.6,-36.4999999999997,20.5000000000002,27.1,        65P    117
-3.14159265358979,3.14159265358979,0.,0.,0.;                          65P    118
126,1,1,0,0,1,0,-2.66666666666667,-2.66666666666667,                  67P    119
2.66666666666667,2.66666666666667,1.,1.,-36.4999999999997,            67P    120
20.5000000000002,27.1,-36.4999999999997,12.5000000000002,27.1,        67P    121
-2.66666666666667,2.66666666666667,0.,0.,0.;                          67P    122
126,1,1,0,0,1,0,0.,0.,0.4,0.4,1.,1.,-38.8183316126755,                69P    123
16.5000000000002,23.1414215056865,-38.8183316126755,                  69P    124
20.5000000000002,23.1414215056865,0.,0.4,0.,0.,0.;                    69P    125
126,6,2,0,0,0,0,-1.44397421884865,-1.44397421884865,                  71P    126
-1.44397421884865,-0.183261915552685,-0.183261915552685,              71P    127
1.07745038774328,1.07745038774328,2.33816269103925,                   71P    128
2.33816269103925,2.33816269103925,1.,0.807817632193427,1.,            71P    129
0.807817632193432,1.,0.80781763219343,1.,-34.3043467082942,           71P    130
20.5000000000002,32.5558286719562,-30.3234448185174,                  71P    131
20.5000000000002,32.0482380436407,-29.5921003578867,                  71P    132
20.5000000000002,28.1023080668308,-28.860755897256,                   71P    133
20.5000000000002,24.1563780900208,-32.3953348587219,                  71P    134
20.5000000000002,22.2558571963853,-35.9299138201878,                  71P    135
20.5000000000002,20.3553363027497,-38.8183316126755,                  71P    136
20.5000000000002,23.1414215056865,-1.44397421884865,                  71P    137
2.33816269103925,0.,0.,0.;                                            71P    138
126,1,1,0,0,1,0,0.,0.,0.4,0.4,1.,1.,-34.3043467082942,                73P    139
16.5000000000002,32.5558286719562,-34.3043467082942,                  73P    140
20.5000000000002,32.5558286719562,0.,0.4,0.,0.,0.;                    73P    141
126,1,1,0,0,1,0,0.,0.,0.727272727272727,0.727272727272727,1.,1.,      75P    142
-40.4999999999997,16.5000000000002,27.1,-40.4999999999997,            75P    143
12.5000000000002,27.1,0.,0.727272727272727,0.,0.,0.;                  75P    144
126,2,2,0,0,0,0,0.,0.,0.,0.689294631235922,0.689294631235922,         77P    145
0.689294631235922,1.,0.941194670761729,1.,-38.8183316126755,          77P    146
20.5000000000002,23.1414215056865,-53.6217953463927,                  77P    147
20.5000000000002,37.4204192905256,-55.964208780368,                   77P    148
20.5000000000002,57.854347340689,0.,0.689294631235922,0.,0.,0.;       77P    149
126,6,2,0,0,0,0,3.02745732227395,3.02745732227395,                    79P    150
3.02745732227395,4.28816962556976,4.28816962556976,                   79P    151
5.54888192886558,5.54888192886558,6.80959423216139,                   79P    152
6.80959423216139,6.80959423216139,1.,0.807817632193478,1.,            79P    153
0.807817632193474,1.,0.807817632193463,1.,-55.9642087803722,          79P    154
20.5000000000002,57.8543473406886,-56.4212551015422,                  79P    155
20.5000000000002,61.8413683792971,-52.7638458308862,                  79P    156
20.5000000000002,63.4932114496044,-49.1064365602303,                  79P    157
20.5000000000002,65.1450545199117,-46.4173563568267,                  79P    158
20.5000000000002,62.1661158227134,-43.7282761534231,                  79P    159
20.5000000000002,59.1871771255152,-45.7446007978118,                  79P    160
20.5000000000002,55.7173553677829,3.02745732227395,                   79P    161
6.80959423216139,0.,0.,0.;                                            79P    162
126,2,2,0,0,0,0,-0.550784971070728,-0.550784971070728,                81P    163
-0.550784971070728,-7.87304970371296D-17,-7.87304970371296D-17,       81P    164
-7.87304970371296D-17,1.,0.962318545257706,1.,-45.7446007978118,      81P    165
20.5000000000002,55.7173553677829,-43.2968777630948,                  81P    166
20.5000000000002,42.5202420335286,-34.3043467082942,                  81P    167
20.5000000000002,32.5558286719562,-0.550784971070728,                 81P    168
-7.87304970371296D-17,0.,0.,0.;                                       81P    169
126,8,2,0,1,0,0,-3.14159265358979,-3.14159265358979,                  83P    170
-3.14159265358979,-1.5707963267949,-1.5707963267949,0.,0.,            83P    171
1.5707963267949,1.5707963267949,3.14159265358979,                     83P    172
3.14159265358979,3.14159265358979,1.,0.707106781186564,1.,            83P    173
0.707106781186564,1.,0.707106781186564,1.,0.707106781186564,1.,       83P    174
-51.9999938108955,20.5000000000002,58.4807296260333,                  83P    175
-51.9999938108955,20.5000000000002,56.9807296260333,                  83P    176
-50.4999938108955,20.5000000000002,56.9807296260333,                  83P    177
-48.9999938108955,20.5000000000002,56.9807296260333,                  83P    178
-48.9999938108955,20.5000000000002,58.4807296260333,                  83P    179
-48.9999938108955,20.5000000000002,59.9807296260333,                  83P    180
-50.4999938108955,20.5000000000002,59.9807296260333,                  83P    181
-51.9999938108955,20.5000000000002,59.9807296260333,                  83P    182
-51.9999938108955,20.5000000000002,58.4807296260333,                  83P    183
-3.14159265358979,3.14159265358979,0.,0.,0.;                          83P    184
126,1,1,0,0,1,0,0.,0.,0.4,0.4,1.,1.,-45.7446007978118,                85P    185
16.5000000000002,55.7173553677829,-45.7446007978118,                  85P    186
20.5000000000002,55.7173553677829,0.,0.4,0.,0.,0.;                    85P    187
126,1,1,0,0,1,0,0.,0.,0.4,0.4,1.,1.,-55.964208780368,                 87P    188
16.5000000000002,57.8543473406891,-55.964208780368,                   87P    189
20.5000000000002,57.8543473406891,0.,0.4,0.,0.,0.;                    87P    190
126,1,1,0,0,1,0,-2.66666666666666,-2.66666666666666,0.,0.,1.,1.,      89P    191
-51.9999938108955,20.5000000000002,58.4807296260333,                  89P    192
-51.9999938108955,16.5000000000002,58.4807296260333,                  89P    193
-2.66666666666666,0.,0.,0.,0.;                                        89P    194
128,1,1,1,1,0,0,1,0,0,-0.551,-0.551,0.551,0.551,-0.551,-0.551,        91P    195
0.551,0.551,1.,1.,1.,1.,-29.4899999999997,12.5000000000002,           91P    196
32.61,-40.5099999999997,12.5000000000002,32.61,                       91P    197
-29.4899999999997,12.5000000000002,21.59,-40.5099999999997,           91P    198
12.5000000000002,21.59,-0.551,0.551,-0.551,0.551;                     91P    199
128,1,1,1,1,0,0,1,0,0,-0.593126129064663,-0.593126129064663,          93P    200
1.62056471026013,1.62056471026013,-0.667432489387838,                 93P    201
-0.667432489387838,3.53493081203468,3.53493081203468,1.,1.,1.,        93P    202
1.,-34.2943467082942,16.5000000000002,65.1550545199117,               93P    203
-56.4312551015422,16.5000000000002,65.1550545199117,                  93P    204
-34.2943467082942,16.5000000000002,23.1314215056865,                  93P    205
-56.4312551015422,16.5000000000002,23.1314215056865,                  93P    206
-0.593126129064663,1.62056471026013,-0.667432489387838,               93P    207
3.53493081203468;                                                     93P    208
128,1,8,1,2,0,1,0,0,1,-2.66666666666667,-2.66666666666667,            95P    209
2.66666666666667,2.66666666666667,-3.14159265358979,                  95P    210
-3.14159265358979,-3.14159265358979,-1.5707963267949,                 95P    211
-1.5707963267949,0.,0.,1.5707963267949,1.5707963267949,               95P    212
3.14159265358979,3.14159265358979,3.14159265358979,1.,1.,             95P    213
0.707106781186548,0.707106781186548,1.,1.,0.707106781186548,          95P    214
0.707106781186548,1.,1.,0.707106781186548,0.707106781186548,1.,       95P    215
1.,0.707106781186548,0.707106781186548,1.,1.,-36.4999999999997,       95P    216
12.5000000000002,27.1,-36.4999999999997,20.5000000000002,27.1,        95P    217
-36.4999999999997,12.5000000000002,28.6,-36.4999999999997,            95P    218
20.5000000000002,28.6,-34.9999999999997,12.5000000000002,28.6,        95P    219
-34.9999999999997,20.5000000000002,28.6,-33.4999999999997,            95P    220
12.5000000000002,28.6,-33.4999999999997,20.5000000000002,28.6,        95P    221
-33.4999999999997,12.5000000000002,27.1,-33.4999999999997,            95P    222
20.5000000000002,27.1,-33.4999999999997,12.5000000000002,25.6,        95P    223
-33.4999999999997,20.5000000000002,25.6,-34.9999999999997,            95P    224
12.5000000000002,25.6,-34.9999999999997,20.5000000000002,25.6,        95P    225
-36.4999999999997,12.5000000000002,25.6,-36.4999999999997,            95P    226
20.5000000000002,25.6,-36.4999999999997,12.5000000000002,27.1,        95P    227
-36.4999999999997,20.5000000000002,27.1,-2.66666666666667,            95P    228
2.66666666666667,-3.14159265358979,3.14159265358979;                  95P    229
128,1,8,1,2,0,1,0,0,1,-0.727272727272727,-0.727272727272727,          97P    230
0.727272727272727,0.727272727272727,-3.14159265358979,                97P    231
-3.14159265358979,-3.14159265358979,-1.5707963267949,                 97P    232
-1.5707963267949,0.,0.,1.5707963267949,1.5707963267949,               97P    233
3.14159265358979,3.14159265358979,3.14159265358979,1.,1.,             97P    234
0.707106781186548,0.707106781186548,1.,1.,0.707106781186548,          97P    235
0.707106781186548,1.,1.,0.707106781186548,0.707106781186548,1.,       97P    236
1.,0.707106781186548,0.707106781186548,1.,1.,-40.4999999999997,       97P    237
20.5000000000002,27.1,-40.4999999999997,12.5000000000002,27.1,        97P    238
-40.4999999999997,20.5000000000002,32.6,-40.4999999999997,            97P    239
12.5000000000002,32.6,-34.9999999999997,20.5000000000002,32.6,        97P    240
-34.9999999999997,12.5000000000002,32.6,-29.4999999999997,            97P    241
20.5000000000002,32.6,-29.4999999999997,12.5000000000002,32.6,        97P    242
-29.4999999999997,20.5000000000002,27.1,-29.4999999999997,            97P    243
12.5000000000002,27.1,-29.4999999999997,20.5000000000002,21.6,        97P    244
-29.4999999999997,12.5000000000002,21.6,-34.9999999999997,            97P    245
20.5000000000002,21.6,-34.9999999999997,12.5000000000002,21.6,        97P    246
-40.4999999999997,20.5000000000002,21.6,-40.4999999999997,            97P    247
12.5000000000002,21.6,-40.4999999999997,20.5000000000002,27.1,        97P    248
-40.4999999999997,12.5000000000002,27.1,-0.727272727272727,           97P    249
0.727272727272727,-3.14159265358979,3.14159265358979;                 97P    250
128,1,1,1,1,0,0,1,0,0,-2.14312551015425,-2.14312551015425,            99P    251
0.614924410274369,0.614924410274369,-3.80550545199117,                99P    252
-3.80550545199117,0.675466369725028,0.675466369725028,1.,1.,1.,       99P    253
1.,-56.4312551015422,20.5000000000002,65.1550545199117,               99P    254
-28.850755897256,20.5000000000002,65.1550545199117,                   99P    255
-56.4312551015422,20.5000000000002,20.3453363027497,                  99P    256
-28.850755897256,20.5000000000002,20.3453363027497,                   99P    257
-2.14312551015425,0.614924410274369,-3.80550545199117,                99P    258
0.675466369725028;                                                    99P    259
128,1,2,1,2,0,0,0,0,0,0.,0.,0.0842105263157891,                      101P    260
0.0842105263157891,0.,0.,0.,0.550784971070728,0.550784971070728,     101P    261
0.550784971070728,1.,1.,0.962318545257703,0.962318545257703,1.,      101P    262
1.,-34.3043467082942,16.5000000000002,32.5558286719562,              101P    263
-34.3043467082942,20.5000000000002,32.5558286719562,                 101P    264
-43.2968777630948,16.5000000000002,42.5202420335286,                 101P    265
-43.2968777630948,20.5000000000002,42.5202420335286,                 101P    266
-45.7446007978118,16.5000000000002,55.7173553677829,                 101P    267
-45.7446007978118,20.5000000000002,55.7173553677829,0.,              101P    268
0.0842105263157891,0.,0.550784971070728;                             101P    269
128,1,2,1,2,0,0,0,0,0,0.,0.,0.069813055696522,0.069813055696522,     103P    270
0.,0.,0.,0.689294631235923,0.689294631235923,0.689294631235923,      103P    271
1.,1.,0.941194670761729,0.941194670761729,1.,1.,                     103P    272
-38.8183316126755,20.5000000000002,23.1414215056865,                 103P    273
-38.8183316126755,16.5000000000002,23.1414215056865,                 103P    274
-53.6217953463927,20.5000000000002,37.4204192905257,                 103P    275
-53.6217953463927,16.5000000000002,37.4204192905257,                 103P    276
-55.964208780368,20.5000000000002,57.8543473406891,                  103P    277
-55.964208780368,16.5000000000002,57.8543473406891,0.,               103P    278
0.069813055696522,0.,0.689294631235923;                              103P    279
128,1,8,1,2,0,1,0,0,1,0.,0.,2.66666666666666,2.66666666666666,       105P    280
-3.14159265358979,-3.14159265358979,-3.14159265358979,               105P    281
-1.5707963267949,-1.5707963267949,0.,0.,1.5707963267949,             105P    282
1.5707963267949,3.14159265358979,3.14159265358979,                   105P    283
3.14159265358979,1.,1.,0.707106781186548,0.707106781186548,1.,       105P    284
1.,0.707106781186548,0.707106781186548,1.,1.,0.707106781186548,      105P    285
0.707106781186548,1.,1.,0.707106781186548,0.707106781186548,1.,      105P    286
1.,-51.9999938108955,16.5000000000002,58.4807296260333,              105P    287
-51.9999938108955,20.5000000000002,58.4807296260333,                 105P    288
-51.9999938108955,16.5000000000002,59.9807296260333,                 105P    289
-51.9999938108955,20.5000000000002,59.9807296260333,                 105P    290
-50.4999938108955,16.5000000000002,59.9807296260333,                 105P    291
-50.4999938108955,20.5000000000002,59.9807296260333,                 105P    292
-48.9999938108955,16.5000000000002,59.9807296260333,                 105P    293
-48.9999938108955,20.5000000000002,59.9807296260333,                 105P    294
-48.9999938108955,16.5000000000002,58.4807296260333,                 105P    295
-48.9999938108955,20.5000000000002,58.4807296260333,                 105P    296
-48.9999938108955,16.5000000000002,56.9807296260333,                 105P    297
-48.9999938108955,20.5000000000002,56.9807296260333,                 105P    298
-50.4999938108955,16.5000000000002,56.9807296260333,                 105P    299
-50.4999938108955,20.5000000000002,56.9807296260333,                 105P    300
-51.9999938108955,16.5000000000002,56.9807296260333,                 105P    301
-51.9999938108955,20.5000000000002,56.9807296260333,                 105P    302
-51.9999938108955,16.5000000000002,58.4807296260333,                 105P    303
-51.9999938108955,20.5000000000002,58.4807296260333,0.,              105P    304
2.66666666666666,-3.14159265358979,3.14159265358979;                 105P    305
128,1,6,1,2,0,0,0,0,0,0.,0.,0.727272727272168,0.727272727272168,     107P    306
-3.25572798490564,-3.25572798490564,-3.25572798490564,               107P    307
-1.99501568160983,-1.99501568160983,-0.734303378314013,              107P    308
-0.734303378314013,0.526408924981801,0.526408924981801,              107P    309
0.526408924981801,1.,1.,0.807817632193472,0.807817632193472,1.,      107P    310
1.,0.807817632193472,0.807817632193472,1.,1.,0.807817632193472,      107P    311
0.807817632193472,1.,1.,-55.9642087803722,20.5000000000002,          107P    312
57.8543473406886,-55.9642087803722,16.5000000000002,                 107P    313
57.8543473406886,-56.4212551015422,20.5000000000002,                 107P    314
61.8413683792971,-56.4212551015422,16.5000000000002,                 107P    315
61.8413683792971,-52.7638458308862,20.5000000000002,                 107P    316
63.4932114496044,-52.7638458308862,16.5000000000002,                 107P    317
63.4932114496044,-49.1064365602303,20.5000000000002,                 107P    318
65.1450545199117,-49.1064365602303,16.5000000000002,                 107P    319
65.1450545199117,-46.4173563568267,20.5000000000002,                 107P    320
62.1661158227135,-46.4173563568267,16.5000000000002,                 107P    321
62.1661158227135,-43.7282761534231,20.5000000000002,                 107P    322
59.1871771255152,-43.7282761534231,16.5000000000002,                 107P    323
59.1871771255152,-45.7446007978118,20.5000000000002,                 107P    324
55.7173553677829,-45.7446007978118,16.5000000000002,                 107P    325
55.7173553677829,0.,0.727272727272168,-3.25572798490564,             107P    326
0.526408924981801;                                                   107P    327
502,14,-40.4999999999997,12.5000000000002,27.1,                      109P    328
-36.4999999999997,12.5000000000002,27.1,-38.8183316126755,           109P    329
16.5000000000002,23.1414215056865,-40.4999999999997,                 109P    330
16.5000000000002,27.1,-34.3043467082942,16.5000000000002,            109P    331
32.5558286719562,-45.7446007978118,16.5000000000002,                 109P    332
55.7173553677829,-55.964208780368,16.5000000000002,                  109P    333
57.854347340689,-51.9999938108955,16.5000000000002,                  109P    334
58.4807296260333,-36.4999999999997,20.5000000000002,27.1,            109P    335
-38.8183316126755,20.5000000000002,23.1414215056865,                 109P    336
-34.3043467082942,20.5000000000002,32.5558286719562,                 109P    337
-55.964208780368,20.5000000000002,57.854347340689,                   109P    338
-45.7446007978118,20.5000000000002,55.7173553677829,                 109P    339
-51.9999938108955,20.5000000000002,58.4807296260333;                 109P    340
504,21,49,109,1,109,1,51,109,2,109,2,53,109,3,109,4,55,109,4,        111P    341
109,5,57,109,5,109,6,59,109,7,109,6,61,109,3,109,7,63,109,8,109,     111P    342
8,65,109,9,109,9,67,109,9,109,2,69,109,3,109,10,71,109,11,109,       111P    343
10,73,109,5,109,11,75,109,4,109,1,77,109,10,109,12,79,109,12,        111P    344
109,13,81,109,13,109,11,83,109,14,109,14,85,109,6,109,13,87,109,     111P    345
7,109,12,89,109,14,109,8;                                            111P    346
406,1,5HBody1;                                                       113P    347
314,96.4705882352941,96.4705882352941,95.2941176470588,35HPlasti     115P    348
c - Translucent Matte (White);                                       115P    349
314,96.4705882352941,96.4705882352941,95.2941176470588,11HABS (W     117P    350
hite);                                                               117P    351
S      1G      3D    118P    351                                        T      1
