                                                                        S      1
,,17HLift linkage A v2,17HLift linkage A v2,7Hunknown,7Hunknown,32,38,7,G      1
99,15,,1.,2,2HMM,1,0.08,15H20161011.170748,0.01,10000.,7Hunknown,7HunknoG      2
wn,11,0,;                                                               G      3
     186       1                                                00000000D      1
     186            -117       1       0                               0D      2
     514       2                                                00010000D      3
     514                       1       1                               0D      4
     510       3                                                00010000D      5
     510            -117       1       1                               0D      6
     510       4                                                00010000D      7
     510            -117       1       1                               0D      8
     510       5                                                00010000D      9
     510            -117       1       1                               0D     10
     510       6                                                00010000D     11
     510            -117       1       1                               0D     12
     510       7                                                00010000D     13
     510            -117       1       1                               0D     14
     510       8                                                00010000D     15
     510            -117       1       1                               0D     16
     510       9                                                00010000D     17
     510            -117       1       1                               0D     18
     510      10                                                00010000D     19
     510            -117       1       1                               0D     20
     510      11                                                00010000D     21
     510            -117       1       1                               0D     22
     508      12                                                00010000D     23
     508                       2       1                               0D     24
     508      14                                                00010000D     25
     508                       1       1                               0D     26
     508      15                                                00010000D     27
     508                       1       1                               0D     28
     508      16                                                00010000D     29
     508                       1       1                               0D     30
     508      17                                                00010000D     31
     508                       2       1                               0D     32
     508      19                                                00010000D     33
     508                       1       1                               0D     34
     508      20                                                00010000D     35
     508                       1       1                               0D     36
     508      21                                                00010000D     37
     508                       1       1                               0D     38
     508      22                                                00010000D     39
     508                       1       1                               0D     40
     508      23                                                00010000D     41
     508                       1       1                               0D     42
     508      24                                                00010000D     43
     508                       1       1                               0D     44
     508      25                                                00010000D     45
     508                       1       1                               0D     46
     508      26                                                00010000D     47
     508                       1       1                               0D     48
     126      27                                                00010000D     49
     126       0              13       0                               0D     50
     126      40                                                00010000D     51
     126       0               7       0                               0D     52
     126      47                                                00010000D     53
     126       0               9       0                               0D     54
     126      56                                                00010000D     55
     126       0               7       0                               0D     56
     126      63                                                00010000D     57
     126       0               7       0                               0D     58
     126      70                                                00010000D     59
     126       0              15       0                               0D     60
     126      85                                                00010000D     61
     126       0               3       0                               0D     62
     126      88                                                00010000D     63
     126       0               6       0                               0D     64
     126      94                                                00010000D     65
     126       0               3       0                               0D     66
     126      97                                                00010000D     67
     126       0              13       0                               0D     68
     126     110                                                00010000D     69
     126       0               3       0                               0D     70
     126     113                                                00010000D     71
     126       0              13       0                               0D     72
     126     126                                                00010000D     73
     126       0               3       0                               0D     74
     126     129                                                00010000D     75
     126       0               3       0                               0D     76
     126     132                                                00010000D     77
     126       0              13       0                               0D     78
     126     145                                                00010000D     79
     126       0               9       0                               0D     80
     126     154                                                00010000D     81
     126       0              12       0                               0D     82
     126     166                                                00010000D     83
     126       0               3       0                               0D     84
     126     169                                                00010000D     85
     126       0              12       0                               0D     86
     126     181                                                00010000D     87
     126       0               7       0                               0D     88
     126     188                                                00010000D     89
     126       0              15       0                               0D     90
     126     203                                                00010000D     91
     126       0               5       0                               0D     92
     128     208                                                00010000D     93
     128       0    -117       9       0                               0D     94
     128     217                                                00010000D     95
     128       0    -117      12       0                               0D     96
     128     229                                                00010000D     97
     128       0    -117      23       0                               0D     98
     128     252                                                00010000D     99
     128       0    -117      20       0                               0D    100
     128     272                                                00010000D    101
     128       0    -117      20       0                               0D    102
     128     292                                                00010000D    103
     128       0    -117       9       0                               0D    104
     128     301                                                00010000D    105
     128       0    -117      12       0                               0D    106
     128     313                                                00010000D    107
     128       0    -117      27       0                               0D    108
     128     340                                                00010000D    109
     128       0    -117       9       0                               0D    110
     502     349                                                00010000D    111
     502                      14       1                               0D    112
     504     363                                                00010001D    113
     504                       6       1                               0D    114
     406     369                                                00000000D    115
     406                       1      15                               0D    116
     314     370                                                00000200D    117
     314                       2       0                               0D    118
     314     372                                                00000200D    119
     314                       2       0                               0D    120
186,3,1,0,0,1,115;                                                     1P      1
514,9,5,1,7,1,9,1,11,1,13,1,15,1,17,1,19,1,21,1;                       3P      2
510,93,2,1,23,25;                                                      5P      3
510,95,1,1,27;                                                         7P      4
510,97,1,1,29;                                                         9P      5
510,99,1,1,31;                                                        11P      6
510,101,1,1,33;                                                       13P      7
510,103,3,1,35,37,39;                                                 15P      8
510,105,1,1,41;                                                       17P      9
510,107,1,1,43;                                                       19P     10
510,109,2,1,45,47;                                                    21P     11
508,5,0,113,1,0,0,0,113,2,0,0,0,113,3,0,0,0,113,4,0,0,0,113,5,0,      23P     12
0;                                                                    23P     13
508,1,0,113,6,0,0;                                                    25P     14
508,4,0,113,2,1,0,0,113,7,0,0,0,113,8,0,0,0,113,9,0,0;                27P     15
508,4,0,113,10,0,0,0,113,7,1,0,0,113,1,1,0,0,113,11,1,0;              29P     16
508,9,0,113,12,0,0,0,113,13,0,0,0,113,4,1,0,0,113,14,1,0,0,113,       31P     17
15,0,0,0,113,16,0,0,0,113,14,0,0,0,113,3,1,0,0,113,9,1,0;             31P     18
508,4,0,113,17,0,0,0,113,18,1,0,0,113,19,1,0,0,113,18,0,0;            33P     19
508,4,0,113,12,1,0,0,113,8,1,0,0,113,10,1,0,0,113,20,1,0;             35P     20
508,1,0,113,21,1,0;                                                   37P     21
508,1,0,113,17,1,0;                                                   39P     22
508,4,0,113,5,1,0,0,113,13,1,0,0,113,20,0,0,0,113,11,0,0;             41P     23
508,4,0,113,21,0,0,0,113,22,1,0,0,113,6,1,0,0,113,22,0,0;             43P     24
508,2,0,113,15,1,0,0,113,16,1,0;                                      45P     25
508,1,0,113,19,0,0;                                                   47P     26
126,6,2,0,0,0,0,-0.526408924981801,-0.526408924981801,                49P     27
-0.526408924981801,0.734303378314014,0.734303378314014,               49P     28
1.99501568160983,1.99501568160983,3.25572798490564,                   49P     29
3.25572798490564,3.25572798490564,1.,0.807817632193467,1.,            49P     30
0.80781763219348,1.,0.807817632193471,1.,-45.7446007978118,           49P     31
-16.4999999999998,55.7173553677829,-43.7282761534231,                 49P     32
-16.4999999999998,59.1871771255152,-46.4173563568267,                 49P     33
-16.4999999999998,62.1661158227135,-49.1064365602303,                 49P     34
-16.4999999999998,65.1450545199117,-52.7638458308862,                 49P     35
-16.4999999999998,63.4932114496044,-56.4212551015422,                 49P     36
-16.4999999999998,61.8413683792971,-55.9642087803722,                 49P     37
-16.4999999999998,57.8543473406885,-0.526408924981801,                49P     38
3.25572798490564,0.,0.,0.;                                            49P     39
126,2,2,0,0,0,0,-0.550784971070729,-0.550784971070729,                51P     40
-0.550784971070729,7.87304970371299D-17,7.87304970371299D-17,         51P     41
7.87304970371299D-17,1.,0.96231854525771,1.,-34.3043467082943,        51P     42
-16.4999999999998,32.5558286719562,-43.2968777630948,                 51P     43
-16.4999999999998,42.5202420335286,-45.7446007978118,                 51P     44
-16.4999999999998,55.7173553677829,-0.550784971070729,                51P     45
7.87304970371299D-17,0.,0.,0.;                                        51P     46
126,4,2,0,0,0,0,-3.14159265358979,-3.14159265358979,                  53P     47
-3.14159265358979,-2.29278343621923,-2.29278343621923,                53P     48
-1.44397421884866,-1.44397421884866,-1.44397421884866,1.,             53P     49
0.911284063674415,1.,0.911284063674437,1.,-40.4999999999997,          53P     50
-16.4999999999998,27.1,-40.4999999999997,-16.4999999999998,           53P     51
29.5852629965491,-38.6348250917765,-16.4999999999998,                 53P     52
31.2277168691893,-36.7696501835533,-16.4999999999998,                 53P     53
32.8701707418295,-34.3043467082943,-16.4999999999998,                 53P     54
32.5558286719562,-3.14159265358979,-1.44397421884866,0.,0.,0.;        53P     55
126,2,2,0,0,0,0,-3.94502261614034,-3.94502261614034,                  55P     56
-3.94502261614034,-3.14159265358979,-3.14159265358979,                55P     57
-3.14159265358979,1.,0.920391794671048,1.,-38.8183316126755,          55P     58
-16.4999999999998,23.1414215056866,-40.4999999999997,                 55P     59
-16.4999999999998,24.7635107416539,-40.4999999999997,                 55P     60
-16.4999999999998,27.1,-3.94502261614034,-3.14159265358979,0.,        55P     61
0.,0.;                                                                55P     62
126,2,2,0,0,0,0,2.16442985564891D-16,2.16442985564891D-16,            57P     63
2.16442985564891D-16,0.689294631235924,0.689294631235924,             57P     64
0.689294631235924,1.,0.941194670761733,1.,-55.9642087803722,          57P     65
-16.4999999999998,57.8543473406885,-53.6217953463967,                 57P     66
-16.4999999999998,37.4204192905237,-38.8183316126784,                 57P     67
-16.4999999999998,23.1414215056835,2.16442985564891D-16,              57P     68
0.689294631235924,0.,0.,0.;                                           57P     69
126,8,2,0,1,0,0,-3.14159265358979,-3.14159265358979,                  59P     70
-3.14159265358979,-1.5707963267949,-1.5707963267949,0.,0.,            59P     71
1.5707963267949,1.5707963267949,3.14159265358979,                     59P     72
3.14159265358979,3.14159265358979,1.,0.707106781186564,1.,            59P     73
0.707106781186564,1.,0.707106781186564,1.,0.707106781186564,1.,       59P     74
-51.9999938108955,-16.4999999999998,58.4807296260333,                 59P     75
-51.9999938108955,-16.4999999999998,59.9807296260333,                 59P     76
-50.4999938108955,-16.4999999999998,59.9807296260333,                 59P     77
-48.9999938108955,-16.4999999999998,59.9807296260333,                 59P     78
-48.9999938108955,-16.4999999999998,58.4807296260333,                 59P     79
-48.9999938108955,-16.4999999999998,56.9807296260333,                 59P     80
-50.4999938108955,-16.4999999999998,56.9807296260333,                 59P     81
-51.9999938108955,-16.4999999999998,56.9807296260333,                 59P     82
-51.9999938108955,-16.4999999999998,58.4807296260333,                 59P     83
-3.14159265358979,3.14159265358979,0.,0.,0.;                          59P     84
126,1,1,0,0,1,0,-0.8,-0.8,-0.4,-0.4,1.,1.,-45.7446007978118,          61P     85
-20.4999999999998,55.7173553677829,-45.7446007978118,                 61P     86
-16.4999999999998,55.7173553677829,-0.8,-0.4,0.,0.,0.;                61P     87
126,2,2,0,0,0,0,-0.550784971070729,-0.550784971070729,                63P     88
-0.550784971070729,0.,0.,0.,1.,0.962318545257714,1.,                  63P     89
-34.3043467082943,-20.4999999999998,32.5558286719562,                 63P     90
-43.2968777630948,-20.4999999999998,42.5202420335286,                 63P     91
-45.7446007978118,-20.4999999999998,55.7173553677829,                 63P     92
-0.550784971070729,0.,0.,0.,0.;                                       63P     93
126,1,1,0,0,1,0,0.4,0.4,0.8,0.8,1.,1.,-34.3043467082943,              65P     94
-16.4999999999998,32.5558286719562,-34.3043467082943,                 65P     95
-20.4999999999998,32.5558286719562,0.4,0.8,0.,0.,0.;                  65P     96
126,6,2,0,0,0,0,-0.526408924981801,-0.526408924981801,                67P     97
-0.526408924981801,0.734303378314011,0.734303378314011,               67P     98
1.99501568160982,1.99501568160982,3.25572798490564,                   67P     99
3.25572798490564,3.25572798490564,1.,0.807817632193469,1.,            67P    100
0.807817632193472,1.,0.807817632193472,1.,-45.7446007978118,          67P    101
-20.4999999999998,55.7173553677829,-43.7282761534231,                 67P    102
-20.4999999999998,59.1871771255152,-46.4173563568267,                 67P    103
-20.4999999999998,62.1661158227134,-49.1064365602303,                 67P    104
-20.4999999999998,65.1450545199117,-52.7638458308862,                 67P    105
-20.4999999999998,63.4932114496044,-56.4212551015422,                 67P    106
-20.4999999999998,61.8413683792971,-55.9642087803722,                 67P    107
-20.4999999999998,57.8543473406886,-0.526408924981801,                67P    108
3.25572798490564,0.,0.,0.;                                            67P    109
126,1,1,0,0,1,0,0.4,0.4,0.8,0.8,1.,1.,-55.9642087803722,              69P    110
-16.4999999999998,57.8543473406886,-55.9642087803722,                 69P    111
-20.4999999999998,57.8543473406886,0.4,0.8,0.,0.,0.;                  69P    112
126,6,2,0,0,0,0,-2.33816269103925,-2.33816269103925,                  71P    113
-2.33816269103925,-1.07745038774328,-1.07745038774328,                71P    114
0.183261915552687,0.183261915552687,1.44397421884866,                 71P    115
1.44397421884866,1.44397421884866,1.,0.807817632193424,1.,            71P    116
0.807817632193427,1.,0.807817632193425,1.,-38.8183316126755,          71P    117
-20.4999999999998,23.1414215056866,-35.9299138201878,                 71P    118
-20.4999999999998,20.3553363027497,-32.3953348587219,                 71P    119
-20.4999999999998,22.2558571963853,-28.860755897256,                  71P    120
-20.4999999999998,24.1563780900208,-29.5921003578867,                 71P    121
-20.4999999999998,28.1023080668308,-30.3234448185174,                 71P    122
-20.4999999999998,32.0482380436408,-34.3043467082943,                 71P    123
-20.4999999999998,32.5558286719562,-2.33816269103925,                 71P    124
1.44397421884866,0.,0.,0.;                                            71P    125
126,1,1,0,0,1,0,0.4,0.4,0.8,0.8,1.,1.,-38.8183316126755,              73P    126
-16.4999999999998,23.1414215056866,-38.8183316126755,                 73P    127
-20.4999999999998,23.1414215056866,0.4,0.8,0.,0.,0.;                  73P    128
126,1,1,0,0,1,0,-0.727272727272727,-0.727272727272727,0.,0.,1.,       75P    129
1.,-40.4999999999997,-16.4999999999998,27.1,-40.4999999999997,        75P    130
-12.4999999999998,27.1,-0.727272727272727,0.,0.,0.,0.;                75P    131
126,6,2,0,0,0,0,-1.44397421884866,-1.44397421884866,                  77P    132
-1.44397421884866,0.0845480719641601,0.0845480719641601,              77P    133
1.61307036277698,1.61307036277698,3.14159265358979,                   77P    134
3.14159265358979,3.14159265358979,1.,0.721893844629164,1.,            77P    135
0.721893844629164,1.,0.721893844629161,1.,-34.3043467082943,          77P    136
-12.4999999999998,32.5558286719562,-29.0744167515777,                 77P    137
-12.4999999999998,31.888978921252,-29.5196463278369,                  77P    138
-12.4999999999998,26.6355394225427,-29.9648759040961,                 77P    139
-12.4999999999998,21.3820999238334,-35.2324379520479,                 77P    140
-12.4999999999998,21.6049137769779,-40.4999999999997,                 77P    141
-12.4999999999998,21.8277276301224,-40.4999999999997,                 77P    142
-12.4999999999998,27.1,-1.44397421884866,3.14159265358979,0.,0.,      77P    143
0.;                                                                   77P    144
126,4,2,0,0,0,0,3.14159265358979,3.14159265358979,                    79P    145
3.14159265358979,3.99040187096036,3.99040187096036,                   79P    146
4.83921108833093,4.83921108833093,4.83921108833093,1.,                79P    147
0.911284063674415,1.,0.91128406367443,1.,-40.4999999999997,           79P    148
-12.4999999999998,27.1,-40.4999999999997,-12.4999999999998,           79P    149
29.5852629965491,-38.6348250917765,-12.4999999999998,                 79P    150
31.2277168691893,-36.7696501835533,-12.4999999999998,                 79P    151
32.8701707418295,-34.3043467082943,-12.4999999999998,                 79P    152
32.5558286719562,3.14159265358979,4.83921108833093,0.,0.,0.;          79P    153
126,8,2,0,1,0,0,-3.14159265358979,-3.14159265358979,                  81P    154
-3.14159265358979,-1.5707963267949,-1.5707963267949,0.,0.,            81P    155
1.5707963267949,1.5707963267949,3.14159265358979,                     81P    156
3.14159265358979,3.14159265358979,1.,0.707106781186548,1.,            81P    157
0.707106781186548,1.,0.707106781186548,1.,0.707106781186548,1.,       81P    158
-36.4999999999997,-20.4999999999998,27.1,-36.4999999999997,           81P    159
-20.4999999999998,28.6,-34.9999999999997,-20.4999999999998,28.6,      81P    160
-33.4999999999997,-20.4999999999998,28.6,-33.4999999999997,           81P    161
-20.4999999999998,27.1,-33.4999999999997,-20.4999999999998,25.6,      81P    162
-34.9999999999997,-20.4999999999998,25.6,-36.4999999999997,           81P    163
-20.4999999999998,25.6,-36.4999999999997,-20.4999999999998,27.1,      81P    164
-3.14159265358979,3.14159265358979,0.,0.,0.;                          81P    165
126,1,1,0,0,1,0,-5.33333333333334,-5.33333333333334,0.,0.,1.,1.,      83P    166
-36.4999999999997,-20.4999999999998,27.1,-36.4999999999997,           83P    167
-12.4999999999998,27.1,-5.33333333333334,0.,0.,0.,0.;                 83P    168
126,8,2,0,1,0,0,-3.14159265358979,-3.14159265358979,                  85P    169
-3.14159265358979,-1.5707963267949,-1.5707963267949,0.,0.,            85P    170
1.5707963267949,1.5707963267949,3.14159265358979,                     85P    171
3.14159265358979,3.14159265358979,1.,0.707106781186548,1.,            85P    172
0.707106781186548,1.,0.707106781186548,1.,0.707106781186548,1.,       85P    173
-36.4999999999997,-12.4999999999998,27.1,-36.4999999999997,           85P    174
-12.4999999999998,28.6,-34.9999999999997,-12.4999999999998,28.6,      85P    175
-33.4999999999997,-12.4999999999998,28.6,-33.4999999999997,           85P    176
-12.4999999999998,27.1,-33.4999999999997,-12.4999999999998,25.6,      85P    177
-34.9999999999997,-12.4999999999998,25.6,-36.4999999999997,           85P    178
-12.4999999999998,25.6,-36.4999999999997,-12.4999999999998,27.1,      85P    179
-3.14159265358979,3.14159265358979,0.,0.,0.;                          85P    180
126,2,2,0,0,0,0,5.41107463912227D-17,5.41107463912227D-17,            87P    181
5.41107463912227D-17,0.689294631235924,0.689294631235924,             87P    182
0.689294631235924,1.,0.941194670761729,1.,-55.9642087803722,          87P    183
-20.4999999999998,57.8543473406885,-53.6217953463968,                 87P    184
-20.4999999999998,37.4204192905237,-38.8183316126784,                 87P    185
-20.4999999999998,23.1414215056835,5.41107463912227D-17,              87P    186
0.689294631235924,0.,0.,0.;                                           87P    187
126,8,2,0,1,0,0,-3.14159265358979,-3.14159265358979,                  89P    188
-3.14159265358979,-1.5707963267949,-1.5707963267949,0.,0.,            89P    189
1.5707963267949,1.5707963267949,3.14159265358979,                     89P    190
3.14159265358979,3.14159265358979,1.,0.707106781186564,1.,            89P    191
0.707106781186564,1.,0.707106781186564,1.,0.707106781186564,1.,       89P    192
-51.9999938108955,-20.4999999999998,58.4807296260333,                 89P    193
-51.9999938108955,-20.4999999999998,59.9807296260333,                 89P    194
-50.4999938108955,-20.4999999999998,59.9807296260333,                 89P    195
-48.9999938108955,-20.4999999999998,59.9807296260333,                 89P    196
-48.9999938108955,-20.4999999999998,58.4807296260333,                 89P    197
-48.9999938108955,-20.4999999999998,56.9807296260333,                 89P    198
-50.4999938108955,-20.4999999999998,56.9807296260333,                 89P    199
-51.9999938108955,-20.4999999999998,56.9807296260333,                 89P    200
-51.9999938108955,-20.4999999999998,58.4807296260333,                 89P    201
-3.14159265358979,3.14159265358979,0.,0.,0.;                          89P    202
126,1,1,0,0,1,0,-5.33333333333332,-5.33333333333332,                  91P    203
-2.66666666666666,-2.66666666666666,1.,1.,-51.9999938108955,          91P    204
-20.4999999999998,58.4807296260333,-51.9999938108955,                 91P    205
-16.4999999999998,58.4807296260333,-5.33333333333332,                 91P    206
-2.66666666666666,0.,0.,0.;                                           91P    207
128,1,1,1,1,0,0,1,0,0,-1.12790848419452,-1.12790848419452,            93P    208
1.08578235513027,1.08578235513027,-2.0429654060177,                   93P    209
-2.0429654060177,2.15939789540512,2.15939789540512,1.,1.,1.,1.,       93P    210
-34.2943467082943,-16.4999999999998,23.1314215056835,                 93P    211
-56.4312551015422,-16.4999999999998,23.1314215056835,                 93P    212
-34.2943467082943,-16.4999999999998,65.1550545199117,                 93P    213
-56.4312551015422,-16.4999999999998,65.1550545199117,                 93P    214
-1.12790848419452,1.08578235513027,-2.0429654060177,                  93P    215
2.15939789540512;                                                     93P    216
128,1,2,1,2,0,0,0,0,0,0.0842105263157893,0.0842105263157893,          95P    217
0.168421052631579,0.168421052631579,-7.0119348923694D-17,             95P    218
-7.0119348923694D-17,-7.0119348923694D-17,0.550784971070729,          95P    219
0.550784971070729,0.550784971070729,1.,1.,0.962318545257703,          95P    220
0.962318545257703,1.,1.,-45.7446007978118,-16.4999999999998,          95P    221
55.7173553677829,-45.7446007978118,-20.4999999999998,                 95P    222
55.7173553677829,-43.2968777630948,-16.4999999999998,                 95P    223
42.5202420335286,-43.2968777630948,-20.4999999999998,                 95P    224
42.5202420335286,-34.3043467082943,-16.4999999999998,                 95P    225
32.5558286719562,-34.3043467082943,-20.4999999999998,                 95P    226
32.5558286719562,0.0842105263157893,0.168421052631579,                95P    227
-7.0119348923694D-17,0.550784971070729;                               95P    228
128,1,6,1,2,0,0,0,0,0,0.727272727272168,0.727272727272168,            97P    229
1.45454545454434,1.45454545454434,-0.526408924981803,                 97P    230
-0.526408924981803,-0.526408924981803,0.734303378314013,              97P    231
0.734303378314013,1.99501568160983,1.99501568160983,                  97P    232
3.25572798490564,3.25572798490564,3.25572798490564,1.,1.,             97P    233
0.807817632193472,0.807817632193472,1.,1.,0.807817632193472,          97P    234
0.807817632193472,1.,1.,0.807817632193472,0.807817632193472,1.,       97P    235
1.,-45.7446007978118,-20.4999999999998,55.7173553677829,              97P    236
-45.7446007978118,-16.4999999999998,55.7173553677829,                 97P    237
-43.7282761534231,-20.4999999999998,59.1871771255152,                 97P    238
-43.7282761534231,-16.4999999999998,59.1871771255152,                 97P    239
-46.4173563568267,-20.4999999999998,62.1661158227135,                 97P    240
-46.4173563568267,-16.4999999999998,62.1661158227135,                 97P    241
-49.1064365602303,-20.4999999999998,65.1450545199117,                 97P    242
-49.1064365602303,-16.4999999999998,65.1450545199117,                 97P    243
-52.7638458308862,-20.4999999999998,63.4932114496044,                 97P    244
-52.7638458308862,-16.4999999999998,63.4932114496044,                 97P    245
-56.4212551015422,-20.4999999999998,61.8413683792971,                 97P    246
-56.4212551015422,-16.4999999999998,61.8413683792971,                 97P    247
-55.9642087803722,-20.4999999999998,57.8543473406885,                 97P    248
-55.9642087803722,-16.4999999999998,57.8543473406885,                 97P    249
0.727272727272168,1.45454545454434,-0.526408924981803,                97P    250
3.25572798490564;                                                     97P    251
128,1,8,1,2,0,1,0,0,1,0.,0.,1.45454545454545,1.45454545454545,        99P    252
-3.14159265358979,-3.14159265358979,-3.14159265358979,                99P    253
-1.5707963267949,-1.5707963267949,0.,0.,1.5707963267949,              99P    254
1.5707963267949,3.14159265358979,3.14159265358979,                    99P    255
3.14159265358979,1.,1.,0.707106781186548,0.707106781186548,1.,        99P    256
1.,0.707106781186548,0.707106781186548,1.,1.,0.707106781186548,       99P    257
0.707106781186548,1.,1.,0.707106781186548,0.707106781186548,1.,       99P    258
1.,-40.4999999999997,-20.4999999999998,27.1,-40.4999999999997,        99P    259
-12.4999999999998,27.1,-40.4999999999997,-20.4999999999998,21.6,      99P    260
-40.4999999999997,-12.4999999999998,21.6,-34.9999999999997,           99P    261
-20.4999999999998,21.6,-34.9999999999997,-12.4999999999998,21.6,      99P    262
-29.4999999999997,-20.4999999999998,21.6,-29.4999999999997,           99P    263
-12.4999999999998,21.6,-29.4999999999997,-20.4999999999998,27.1,      99P    264
-29.4999999999997,-12.4999999999998,27.1,-29.4999999999997,           99P    265
-20.4999999999998,32.6,-29.4999999999997,-12.4999999999998,32.6,      99P    266
-34.9999999999997,-20.4999999999998,32.6,-34.9999999999997,           99P    267
-12.4999999999998,32.6,-40.4999999999997,-20.4999999999998,32.6,      99P    268
-40.4999999999997,-12.4999999999998,32.6,-40.4999999999997,           99P    269
-20.4999999999998,27.1,-40.4999999999997,-12.4999999999998,27.1,      99P    270
0.,1.45454545454545,-3.14159265358979,3.14159265358979;               99P    271
128,1,8,1,2,0,1,0,0,1,0.,0.,5.33333333333334,5.33333333333334,       101P    272
-3.14159265358979,-3.14159265358979,-3.14159265358979,               101P    273
-1.5707963267949,-1.5707963267949,0.,0.,1.5707963267949,             101P    274
1.5707963267949,3.14159265358979,3.14159265358979,                   101P    275
3.14159265358979,1.,1.,0.707106781186548,0.707106781186548,1.,       101P    276
1.,0.707106781186548,0.707106781186548,1.,1.,0.707106781186548,      101P    277
0.707106781186548,1.,1.,0.707106781186548,0.707106781186548,1.,      101P    278
1.,-36.4999999999997,-12.4999999999998,27.1,-36.4999999999997,       101P    279
-20.4999999999998,27.1,-36.4999999999997,-12.4999999999998,25.6,     101P    280
-36.4999999999997,-20.4999999999998,25.6,-34.9999999999997,          101P    281
-12.4999999999998,25.6,-34.9999999999997,-20.4999999999998,25.6,     101P    282
-33.4999999999997,-12.4999999999998,25.6,-33.4999999999997,          101P    283
-20.4999999999998,25.6,-33.4999999999997,-12.4999999999998,27.1,     101P    284
-33.4999999999997,-20.4999999999998,27.1,-33.4999999999997,          101P    285
-12.4999999999998,28.6,-33.4999999999997,-20.4999999999998,28.6,     101P    286
-34.9999999999997,-12.4999999999998,28.6,-34.9999999999997,          101P    287
-20.4999999999998,28.6,-36.4999999999997,-12.4999999999998,28.6,     101P    288
-36.4999999999997,-20.4999999999998,28.6,-36.4999999999997,          101P    289
-12.4999999999998,27.1,-36.4999999999997,-20.4999999999998,27.1,     101P    290
0.,5.33333333333334,-3.14159265358979,3.14159265358979;              101P    291
128,1,1,1,1,0,0,1,0,0,-2.14312551015425,-2.14312551015425,           103P    292
0.614924410274369,0.614924410274369,-0.675466369725029,              103P    293
-0.675466369725029,3.80550545199117,3.80550545199117,1.,1.,1.,       103P    294
1.,-56.4312551015421,-20.4999999999998,20.3453363027497,             103P    295
-28.850755897256,-20.4999999999998,20.3453363027497,                 103P    296
-56.4312551015421,-20.4999999999998,65.1550545199117,                103P    297
-28.850755897256,-20.4999999999998,65.1550545199117,                 103P    298
-2.14312551015425,0.614924410274369,-0.675466369725029,              103P    299
3.80550545199117;                                                    103P    300
128,1,2,1,2,0,0,0,0,0,0.0698130556965171,0.0698130556965171,         105P    301
0.139626111393034,0.139626111393034,-6.78195541219978D-16,           105P    302
-6.78195541219978D-16,-6.78195541219978D-16,0.689294631235924,       105P    303
0.689294631235924,0.689294631235924,1.,1.,0.941194670761729,         105P    304
0.941194670761729,1.,1.,-55.9642087803722,-20.4999999999998,         105P    305
57.8543473406886,-55.9642087803722,-16.4999999999998,                105P    306
57.8543473406886,-53.6217953463967,-20.4999999999998,                105P    307
37.4204192905237,-53.6217953463967,-16.4999999999998,                105P    308
37.4204192905237,-38.8183316126784,-20.4999999999998,                105P    309
23.1414215056835,-38.8183316126784,-16.4999999999998,                105P    310
23.1414215056835,0.0698130556965171,0.139626111393034,               105P    311
-6.78195541219978D-16,0.689294631235924;                             105P    312
128,1,8,1,2,0,1,0,0,1,2.66666666666666,2.66666666666666,             107P    313
5.33333333333332,5.33333333333332,-3.14159265358979,                 107P    314
-3.14159265358979,-3.14159265358979,-1.5707963267949,                107P    315
-1.5707963267949,0.,0.,1.5707963267949,1.5707963267949,              107P    316
3.14159265358979,3.14159265358979,3.14159265358979,1.,1.,            107P    317
0.707106781186548,0.707106781186548,1.,1.,0.707106781186548,         107P    318
0.707106781186548,1.,1.,0.707106781186548,0.707106781186548,1.,      107P    319
1.,0.707106781186548,0.707106781186548,1.,1.,-51.9999938108955,      107P    320
-16.4999999999998,58.4807296260333,-51.9999938108955,                107P    321
-20.4999999999998,58.4807296260333,-51.9999938108955,                107P    322
-16.4999999999998,56.9807296260333,-51.9999938108955,                107P    323
-20.4999999999998,56.9807296260333,-50.4999938108955,                107P    324
-16.4999999999998,56.9807296260333,-50.4999938108955,                107P    325
-20.4999999999998,56.9807296260333,-48.9999938108955,                107P    326
-16.4999999999998,56.9807296260333,-48.9999938108955,                107P    327
-20.4999999999998,56.9807296260333,-48.9999938108955,                107P    328
-16.4999999999998,58.4807296260333,-48.9999938108955,                107P    329
-20.4999999999998,58.4807296260333,-48.9999938108955,                107P    330
-16.4999999999998,59.9807296260333,-48.9999938108955,                107P    331
-20.4999999999998,59.9807296260333,-50.4999938108955,                107P    332
-16.4999999999998,59.9807296260333,-50.4999938108955,                107P    333
-20.4999999999998,59.9807296260333,-51.9999938108955,                107P    334
-16.4999999999998,59.9807296260333,-51.9999938108955,                107P    335
-20.4999999999998,59.9807296260333,-51.9999938108955,                107P    336
-16.4999999999998,58.4807296260333,-51.9999938108955,                107P    337
-20.4999999999998,58.4807296260333,2.66666666666666,                 107P    338
5.33333333333332,-3.14159265358979,3.14159265358979;                 107P    339
128,1,1,1,1,0,0,1,0,0,0.998999381089584,0.998999381089584,           109P    340
2.14355770593178,2.14355770593178,-3.71086297021999,                 109P    341
-3.71086297021999,-2.56005588842038,-2.56005588842038,1.,1.,1.,      109P    342
1.,-29.0644167515777,-12.4999999999998,21.3720999238334,             109P    343
-40.5099999999997,-12.4999999999998,21.3720999238334,                109P    344
-29.0644167515777,-12.4999999999998,32.8801707418295,                109P    345
-40.5099999999997,-12.4999999999998,32.8801707418295,                109P    346
0.998999381089584,2.14355770593178,-3.71086297021999,                109P    347
-2.56005588842038;                                                   109P    348
502,15,-45.7446007978118,-16.4999999999998,55.7173553677829,         111P    349
-55.9642087803722,-16.4999999999998,57.8543473406885,                111P    350
-34.3043467082943,-16.4999999999998,32.5558286719562,                111P    351
-40.4999999999997,-16.4999999999998,27.1,-38.8183316126755,          111P    352
-16.4999999999998,23.1414215056866,-51.9999938108955,                111P    353
-16.4999999999998,58.4807296260333,-45.7446007978118,                111P    354
-20.4999999999998,55.7173553677829,-34.3043467082943,                111P    355
-20.4999999999998,32.5558286719562,-55.9642087803722,                111P    356
-20.4999999999998,57.8543473406886,-38.8183316126755,                111P    357
-20.4999999999998,23.1414215056866,-40.4999999999997,                111P    358
-12.4999999999998,27.1,-34.3043467082943,-12.4999999999998,          111P    359
32.5558286719562,-36.4999999999997,-20.4999999999998,27.1,           111P    360
-36.4999999999997,-12.4999999999998,27.1,-51.9999938108955,          111P    361
-20.4999999999998,58.4807296260333;                                  111P    362
504,22,49,111,1,111,2,51,111,3,111,1,53,111,4,111,3,55,111,5,        113P    363
111,4,57,111,2,111,5,59,111,6,111,6,61,111,7,111,1,63,111,8,111,     113P    364
7,65,111,3,111,8,67,111,7,111,9,69,111,2,111,9,71,111,10,111,8,      113P    365
73,111,5,111,10,75,111,4,111,11,77,111,12,111,11,79,111,11,111,      113P    366
12,81,111,13,111,13,83,111,13,111,14,85,111,14,111,14,87,111,9,      113P    367
111,10,89,111,15,111,15,91,111,15,111,6;                             113P    368
406,1,5HBody1;                                                       115P    369
314,96.4705882352941,96.4705882352941,95.2941176470588,35HPlasti     117P    370
c - Translucent Matte (White);                                       117P    371
314,96.4705882352941,96.4705882352941,95.2941176470588,11HABS (W     119P    372
hite);                                                               119P    373
S      1G      3D    120P    373                                        T      1
